<?xml version="1.0" standalone="no"?><!DOCTYPE svg PUBLIC "-//W3C//DTD SVG 1.1//EN" "http://www.w3.org/Graphics/SVG/1.1/DTD/svg11.dtd"><svg t="1656502174466" class="icon" viewBox="0 0 1024 1024" version="1.1" xmlns="http://www.w3.org/2000/svg" p-id="3135" xmlns:xlink="http://www.w3.org/1999/xlink" width="24" height="24"><defs><style type="text/css">@font-face { font-family: feedback-iconfont; src: url("//at.alicdn.com/t/font_1031158_u69w8yhxdu.woff2?t=1630033759944") format("woff2"), url("//at.alicdn.com/t/font_1031158_u69w8yhxdu.woff?t=1630033759944") format("woff"), url("//at.alicdn.com/t/font_1031158_u69w8yhxdu.ttf?t=1630033759944") format("truetype"); }
</style></defs><path d="M903.185298 16.610582c-6.807822-0.225685-13.623704-0.159188-20.433542-0.082617-2.371705 3.675438-7.909043-0.808032-10.533636 2.216547-47.711176 12.441882-71.658952 44.130445-74.414523 93.502016-25.357299-9.774973-50.544326-16.496148-76.884966-19.224516-37.622864-3.893063-74.525351-0.153143-110.998633 8.60927-82.225837 19.773615-152.245552 62.225529-215.01615 117.559612-25.962819 22.887864-49.514639 48.574622-82.055566 63.096028-37.869707 16.903187-78.122202 24.772936-118.324321 33.084988-30.213552 6.241595-60.696112 11.160315-90.020022 21.418898-31.818533 11.132104-48.952442 33.546433-53.987027 66.202216-0.280091 1.799433-1.15462 3.509197-1.749057 5.259262-0.482603 0.742543-0.941025 1.072003-1.385342 1.022634-0.407039 3.388294 0.941025 7.002274-1.176785 10.175966l0 2.265916c1.815554 5.274375 1.815554 10.560839 0 15.841259l0 2.261886c2.288081 3.953514 0.665972 8.304999 1.203988 12.430799 0.452377-0.049369 0.913822 0.286136 1.39844 1.006514 5.450691 27.698778 12.017715 55.031827 23.012796 81.207233 25.973902 61.841664 63.404329 116.307263 106.972577 166.767965 64.937777 75.191322 137.009813 142.317436 223.421901 192.54137 48.293523 28.058464 99.173354 49.779617 156.069095 51.759397 33.162567 1.150589 65.268244-3.289557 87.219113-32.622536 10.748238-14.378338 16.028658-31.462878 20.731768-48.557494 11.385999-41.390994 18.882966-83.750217 31.55557-124.832909 12.877131-41.725491 33.124281-78.869783 64.019925-110.26012 47.491536-48.282441 85.977846-102.935439 111.725056-165.844068 30.268966-73.958116 41.671085-149.978629 21.511589-228.750682-2.975211-11.611684-7.277327-22.875773-10.961833-34.300059 58.811039-9.251062 85.025739-30.637718 94.766456-77.347418 2.359615-1.985825-0.672017-6.527731 2.034186-8.360413L980.886356 95.079372C982.881248 57.324522 939.735152 14.943134 903.185298 16.610582L903.185298 16.610582 903.185298 16.610582zM743.260418 184.141241c-71.142094 13.503809-124.193133 57.524435-175.033671 104.733865-49.581136 46.028615-93.006316 97.770884-135.591223 150.200283-40.257533 49.565015-88.49665 88.270965-149.804327 108.721635-12.441882 4.153003-25.544698 6.347385-38.370445 9.322596-10.48326 2.426112-19.439118-0.092692-28.315382-6.583145-23.827881-17.415007-42.172831-38.5921-50.175573-67.56237-1.193913-4.323274-1.623117-8.867196-2.359615-13.31641-0.913822-5.472856 0.439279-8.00375 6.969026-7.891915 56.246897 0.900724 107.390699-17.200405 156.123502-43.310323 53.337176-28.586405 98.605112-67.753799 142.328519-109.023891 35.885897-33.882945 69.955234-69.871609 110.943219-98.011682 46.248255-31.732894 96.801649-44.195934 152.378545-34.488465 3.685513 0.643806 7.266244 1.86593 10.886269 2.822067C744.602436 181.210361 744.587323 182.673282 743.260418 184.141241L743.260418 184.141241 743.260418 184.141241zM889.638165 153.681854c-24.508966 0.301249-45.504704-20.346895-45.862374-45.098673-0.35767-24.547251 20.264278-45.477501 45.08759-45.752554 24.827342-0.269008 45.481531 20.021465 45.773712 44.981801C934.924237 132.465468 914.406063 153.37859 889.638165 153.681854L889.638165 153.681854 889.638165 153.681854zM420.590606 947.97445c-46.280496-21.781605-88.341492-50.284386-128.148662-82.171431-5.620962-4.498583-9.136204-4.190282-14.031751 0.501746-27.160762 26.005135-37.254111 57.022689-26.725513 93.472798 10.004688 34.60836 34.366555 54.618743 68.348237 63.992722 11.351744 0.075564 22.705502 0.159188 34.063291 0.230722 35.675325-7.876802 59.66844-28.750631 71.274079-63.662255C427.311781 954.491098 427.030682 951.010112 420.590606 947.97445L420.590606 947.97445 420.590606 947.97445zM420.590606 947.97445" p-id="3136"></path></svg>